<?xml version="1.0" standalone="no"?>
<!DOCTYPE svg PUBLIC "-//W3C//DTD SVG 20010904//EN"
 "http://www.w3.org/TR/2001/REC-SVG-20010904/DTD/svg10.dtd">
<svg version="1.0" xmlns="http://www.w3.org/2000/svg"
 width="1200.000000pt" height="857.000000pt" viewBox="0 0 1200.000000 857.000000"
 preserveAspectRatio="xMidYMid meet">

<g transform="translate(0.000000,857.000000) scale(0.100000,-0.100000)"
fill="#000000" stroke="none">
<path d="M3520 7915 c-197 -40 -311 -109 -565 -345 -60 -56 -141 -126 -180
-155 -105 -79 -131 -117 -114 -162 11 -29 41 -30 133 -3 38 11 71 18 73 16 2
-2 -21 -53 -51 -112 -72 -142 -81 -178 -55 -203 15 -13 19 -29 17 -52 -3 -31
-6 -34 -39 -35 -124 -4 -289 -183 -362 -392 -24 -69 -30 -105 -31 -172 0 -116
25 -174 102 -233 31 -23 57 -47 59 -53 2 -6 -31 -58 -74 -115 -127 -169 -201
-330 -167 -364 10 -9 14 -38 14 -91 0 -68 3 -83 26 -116 29 -42 29 -38 19
-218 -11 -199 21 -299 126 -394 83 -74 311 -221 391 -251 94 -36 201 -89 217
-108 7 -9 11 -33 9 -54 -3 -37 -4 -38 -63 -53 -33 -9 -73 -24 -90 -32 -49 -26
-101 -88 -135 -160 -35 -76 -55 -94 -305 -273 -134 -95 -197 -131 -395 -223
-45 -20 -325 -301 -410 -410 -101 -130 -133 -183 -235 -387 -74 -148 -101
-213 -120 -292 -14 -56 -39 -141 -56 -188 -27 -73 -36 -88 -59 -97 -35 -12
-58 -57 -71 -138 -12 -74 -23 -105 -56 -152 -50 -74 -42 -206 22 -347 18 -42
41 -111 50 -153 23 -112 229 -745 250 -768 17 -19 85 -29 85 -13 0 4 -50 156
-110 338 -61 183 -110 341 -110 353 0 13 6 22 15 22 8 0 15 7 15 15 0 23 33
26 247 23 186 -3 204 -5 230 -24 41 -31 49 -52 93 -270 48 -235 76 -343 103
-402 18 -40 52 -70 64 -58 14 14 -63 394 -126 626 -22 80 -37 148 -33 151 4 3
28 14 55 23 57 21 77 47 77 101 0 45 -21 126 -45 172 -19 36 -19 52 1 75 25
26 29 105 9 158 -42 114 -42 110 -13 131 15 11 40 44 57 74 28 49 38 58 104
88 40 19 97 37 126 40 107 13 124 54 76 181 l-25 67 36 33 c46 42 44 70 -6 74
-29 2 -41 -3 -65 -28 -26 -27 -30 -39 -30 -88 0 -31 2 -72 5 -90 l5 -34 -98
-43 c-126 -56 -161 -83 -193 -151 -14 -30 -36 -61 -47 -68 -51 -33 -295 -27
-397 9 -25 9 -73 20 -109 25 -35 5 -68 13 -72 17 -5 5 9 60 31 123 22 63 52
156 66 205 31 110 151 359 231 477 104 155 335 396 468 490 28 19 75 47 105
62 30 16 78 44 105 64 148 106 418 292 420 290 1 -2 -8 -95 -21 -208 -13 -112
-21 -206 -19 -208 11 -11 82 44 195 153 71 68 139 126 151 130 27 9 41 -10 34
-45 -12 -60 -36 -273 -42 -361 -7 -115 -1 -149 28 -149 21 0 118 92 261 249
42 46 83 81 90 79 10 -4 14 -43 16 -166 l2 -162 25 0 c41 0 76 66 95 180 15
86 19 100 33 100 7 0 53 -34 102 -75 49 -41 109 -85 134 -97 25 -12 47 -22 49
-23 1 -1 -20 -49 -46 -106 -79 -168 -172 -434 -232 -666 -28 -105 -38 -120
-71 -103 -13 7 -52 40 -86 73 -34 32 -66 56 -72 53 -16 -10 -39 -97 -66 -251
-36 -199 -47 -245 -58 -245 -6 0 -8 38 -5 98 4 75 11 111 32 160 42 100 47
229 10 267 -22 21 -41 19 -70 -10 -47 -47 -84 -8 -84 86 0 40 5 54 25 73 31
29 32 46 1 75 -13 13 -27 38 -30 56 -8 43 -30 62 -51 45 -8 -7 -15 -20 -15
-30 0 -37 -22 -80 -41 -80 -26 0 -24 -18 6 -46 23 -21 25 -30 25 -114 0 -49
-4 -90 -9 -90 -5 0 -38 14 -74 31 -103 48 -122 24 -106 -133 10 -101 16 -117
45 -128 13 -5 26 -21 30 -37 4 -15 -2 -140 -15 -278 -12 -137 -21 -266 -21
-285 0 -39 -23 -80 -45 -80 -8 0 -39 -22 -69 -50 -54 -48 -104 -80 -126 -80
-7 0 -39 -13 -73 -29 -34 -15 -87 -36 -117 -46 -30 -9 -98 -36 -152 -58 -115
-48 -105 -25 -114 -287 -5 -157 -4 -188 9 -205 14 -18 29 -20 196 -23 l180 -4
3 -91 3 -92 28 -3 c16 -2 34 1 41 7 13 11 250 8 2156 -24 2264 -38 2338 -38
3320 -12 528 14 890 20 897 15 6 -5 27 -8 45 -6 32 3 33 5 33 45 0 33 6 49 26
69 31 31 49 25 49 -15 0 -38 40 -95 69 -99 26 -4 25 -10 4 85 -7 30 28 43 116
43 129 0 155 17 182 114 22 82 14 170 -26 260 l-23 51 -158 0 c-132 0 -164 3
-191 17 -57 31 -53 78 12 141 49 48 92 61 200 61 116 0 176 -24 199 -79 9 -21
32 -59 51 -85 19 -26 41 -74 50 -106 12 -47 45 -401 45 -487 0 -16 9 -17 82
-15 83 3 83 3 88 32 7 41 21 41 60 1 42 -43 65 -46 56 -7 -20 87 -19 98 9 120
15 12 34 22 41 22 24 0 29 24 34 161 l6 137 37 41 c20 22 39 52 43 66 12 47
-2 112 -35 161 -17 26 -31 56 -31 66 0 10 16 35 35 56 46 52 55 79 55 177 0
176 -36 332 -121 518 -28 62 -75 174 -104 250 -53 139 -83 187 -116 187 -37 0
-38 -59 -3 -126 37 -70 139 -319 184 -453 22 -62 44 -119 50 -126 6 -7 16 -68
22 -134 l12 -121 -44 -82 c-41 -77 -44 -89 -44 -158 -1 -58 4 -84 22 -117 12
-23 22 -46 22 -52 0 -5 -18 -30 -39 -56 -41 -49 -63 -109 -54 -148 3 -12 16
-51 30 -85 13 -35 22 -69 20 -76 -5 -13 -159 -118 -202 -138 -15 -7 -29 -8
-34 -2 -5 5 -14 77 -21 159 -21 275 -50 358 -178 498 -42 47 -85 97 -95 111
-10 14 -35 35 -56 46 -22 10 -76 50 -121 89 -85 72 -107 81 -196 81 -63 0 -62
-4 -34 111 35 148 41 296 38 887 l-3 562 50 16 c114 37 425 192 532 266 42 28
43 28 69 11 15 -9 102 -97 195 -195 212 -226 306 -364 413 -606 41 -92 97
-216 126 -277 129 -273 236 -621 328 -1067 17 -81 38 -161 47 -178 9 -17 25
-72 36 -123 11 -50 23 -94 26 -97 13 -12 -7 333 -26 435 -44 245 -80 379 -184
690 -86 255 -113 322 -228 580 -115 254 -99 224 -213 396 -78 117 -113 157
-278 320 l-188 186 -44 129 c-53 160 -70 192 -101 200 -32 8 -88 -2 -142 -26
-24 -10 -45 -15 -48 -11 -2 5 -7 33 -11 62 -8 73 11 98 86 110 59 9 175 61
262 117 64 41 83 71 99 159 15 76 6 308 -17 440 l-17 102 39 44 c21 25 62 88
89 140 l50 95 -23 24 c-16 18 -22 36 -22 71 0 36 -4 49 -20 57 -33 17 -24 49
26 94 25 22 54 58 65 78 40 78 44 240 8 371 -17 63 -65 152 -95 176 -32 25
-64 86 -64 123 0 16 7 40 16 53 14 21 14 32 4 76 -7 28 -10 66 -7 85 4 21 1
37 -6 41 -7 5 -18 23 -24 42 -11 30 -10 39 7 65 11 17 27 46 36 65 15 32 15
36 0 47 -11 7 -16 27 -16 61 0 27 -6 55 -12 62 -11 10 -7 18 20 39 42 35 44
70 2 79 -27 5 -30 9 -30 42 0 25 -11 54 -36 91 -19 30 -40 66 -45 79 -8 19
-15 22 -42 19 -17 -3 -41 -9 -52 -13 -11 -4 -2 8 20 28 39 36 39 37 21 52 -35
27 -105 19 -169 -19 -31 -19 -57 -31 -57 -26 0 5 3 11 8 14 4 2 22 25 40 50
l34 46 -111 -6 c-121 -8 -125 -5 -96 46 8 14 14 35 15 47 0 47 -120 55 -212
13 -63 -29 -110 -26 -150 9 -95 83 -171 96 -538 96 -288 -1 -491 -14 -610 -40
-36 -8 -144 -28 -242 -44 -299 -51 -538 -121 -737 -216 -135 -66 -204 -114
-222 -156 -12 -30 -11 -33 15 -55 28 -25 66 -32 66 -13 0 6 -5 19 -10 30 -8
13 -7 25 0 39 13 25 107 80 138 80 20 0 22 -5 22 -50 0 -56 0 -55 -98 -127
-68 -49 -116 -110 -110 -140 6 -32 41 -21 63 19 18 35 45 51 45 28 0 -22 32
-7 85 39 40 35 88 63 165 95 120 51 142 56 117 28 -37 -41 -13 -53 50 -27 19
8 45 15 57 14 20 0 20 -1 -4 -17 -45 -30 -95 -80 -88 -87 4 -4 89 31 190 78
184 85 255 113 264 104 3 -2 -32 -24 -78 -47 -45 -24 -116 -65 -157 -92 -40
-26 -79 -48 -85 -48 -29 0 -293 -222 -337 -284 -34 -46 -36 -56 -9 -56 11 0
52 32 93 73 99 97 299 219 338 205 8 -3 -85 -85 -184 -160 -34 -25 -91 -74
-127 -107 -36 -33 -92 -79 -125 -104 -98 -72 -112 -101 -34 -71 41 16 152 85
244 152 105 77 478 258 700 341 88 33 231 87 318 121 88 34 161 60 163 57 2
-2 -65 -41 -148 -87 -206 -112 -298 -172 -347 -225 -39 -42 -52 -77 -32 -89 4
-3 53 26 107 65 108 77 190 127 301 183 86 43 101 45 74 10 -23 -30 -19 -48
10 -39 31 10 22 -12 -25 -63 -47 -51 -66 -82 -66 -106 0 -32 29 -14 131 82
124 115 217 193 204 172 -5 -8 -24 -37 -42 -64 -18 -27 -36 -59 -39 -72 -15
-61 24 -87 54 -34 35 63 37 65 66 52 22 -10 26 -18 26 -57 0 -63 22 -59 50 9
20 50 54 95 64 85 3 -2 -1 -23 -7 -46 -9 -35 -8 -52 6 -96 9 -30 17 -77 17
-106 0 -50 2 -53 33 -66 19 -8 46 -30 61 -49 31 -41 101 -92 140 -102 28 -7
28 -8 45 -113 12 -71 46 -149 73 -165 12 -7 30 -7 58 1 58 15 57 23 49 -212
-1 -50 15 -134 34 -172 8 -15 17 -45 21 -65 4 -21 13 -38 20 -38 26 0 142 43
157 59 9 9 21 44 27 79 29 164 167 342 268 345 76 2 181 -153 209 -308 16 -88
18 -155 8 -206 -8 -43 -84 -116 -166 -160 -55 -29 -73 -33 -164 -38 -136 -8
-153 -26 -65 -70 26 -13 42 -28 42 -40 0 -10 9 -30 20 -44 25 -32 25 -41 -2
-78 -26 -34 -17 -62 21 -67 20 -3 21 -7 15 -49 l-7 -45 43 7 43 7 -22 -30
c-26 -38 -27 -59 -1 -80 16 -13 24 -41 35 -122 23 -158 31 -382 15 -420 -32
-77 -186 -173 -330 -205 -41 -9 -85 -23 -97 -30 -33 -22 -39 -89 -19 -212 9
-57 14 -113 11 -123 -8 -25 -153 -97 -220 -109 -37 -7 -53 -6 -63 3 -17 16
-64 243 -57 273 3 13 22 31 44 42 46 24 56 44 32 65 -22 20 -85 21 -188 1
-241 -47 -533 -60 -533 -25 0 4 30 27 68 51 37 24 86 63 110 86 35 36 42 49
42 82 0 31 -6 44 -30 65 -57 47 -136 46 -418 -5 -90 -17 -176 -29 -190 -27
-24 3 -29 10 -45 73 -25 99 -140 675 -136 679 2 2 49 27 104 56 135 71 273
154 310 185 l30 25 -53 0 c-64 0 -95 -12 -220 -88 -226 -137 -502 -218 -716
-210 -116 4 -167 23 -197 72 -22 37 -25 103 -5 149 30 72 187 174 413 267 172
71 271 92 405 88 59 -1 108 0 108 3 0 3 -10 15 -22 27 -42 38 -75 44 -208 37
l-125 -7 -18 84 c-19 90 -36 256 -37 348 l0 56 68 17 c117 30 188 85 130 101
-13 3 -64 -2 -115 -11 -50 -9 -98 -13 -107 -10 -14 6 -16 30 -16 175 0 126 -3
173 -14 187 -13 18 -14 18 -24 -2 -6 -11 -14 -91 -17 -179 -8 -221 -8 -221
-50 -228 -39 -8 -52 -34 -35 -67 9 -16 18 -20 40 -15 18 3 32 0 39 -8 11 -12
71 -386 74 -461 2 -29 0 -31 -103 -65 -131 -45 -204 -82 -306 -157 -137 -102
-174 -161 -174 -275 0 -95 67 -163 190 -194 96 -24 277 -10 533 42 24 5 29 1
43 -33 9 -21 43 -159 76 -308 32 -148 64 -294 71 -323 15 -67 10 -71 -128
-114 -123 -38 -165 -58 -205 -100 -46 -49 -100 -163 -100 -212 0 -44 27 -98
58 -115 14 -8 20 -25 25 -71 9 -108 90 -200 175 -200 56 0 82 -16 82 -51 0
-53 34 -95 104 -128 93 -44 118 -88 216 -366 28 -82 62 -173 75 -202 24 -53
37 -122 55 -293 12 -115 22 -140 60 -162 24 -13 30 -24 30 -50 1 -52 -52 -475
-61 -489 -10 -16 -69 10 -146 63 -91 64 -103 68 -211 68 l-99 0 -7 33 c-4 17
-9 68 -13 112 -4 66 -1 91 16 142 26 78 27 125 0 179 -26 55 -97 104 -150 104
-71 0 -136 -82 -146 -185 -8 -74 1 -101 48 -144 l41 -37 1 -90 2 -89 -213 1
c-171 0 -215 3 -227 15 -16 16 -55 199 -57 263 0 29 7 53 26 80 62 91 40 204
-52 267 -42 28 -90 30 -154 5 -59 -22 -90 -63 -96 -126 -6 -68 12 -114 64
-156 37 -31 44 -42 44 -73 0 -39 -26 -209 -36 -234 -7 -19 -52 -24 -340 -37
-227 -11 -274 -6 -274 25 0 8 14 27 31 42 18 16 42 51 55 78 34 72 31 130 -12
240 -48 119 -51 143 -25 193 29 57 27 88 -8 123 -40 40 -89 40 -133 0 l-33
-29 0 -99 c0 -94 -1 -100 -33 -145 -18 -26 -37 -50 -42 -53 -6 -4 -20 -25 -31
-47 -26 -51 -23 -132 7 -170 10 -14 38 -49 62 -78 23 -29 41 -58 39 -63 -7
-22 -66 -26 -217 -17 -85 6 -210 10 -277 10 l-121 0 -6 48 c-10 81 -25 262
-32 398 l-7 131 59 29 c97 48 122 122 104 304 -14 133 -24 150 -90 150 -56 0
-63 -8 -75 -80 l-7 -44 -24 47 c-29 56 -47 67 -112 67 l-49 0 -19 -52 c-25
-68 -48 -74 -70 -18 -9 22 -25 45 -35 50 -23 13 -80 13 -113 0 -32 -12 -33
-37 -11 -185 23 -155 23 -154 63 -173 l37 -17 0 -312 c0 -171 -3 -314 -6 -318
-12 -11 -126 -24 -327 -35 -112 -7 -205 -10 -206 -8 -2 1 -8 107 -14 233 l-10
230 44 45 c56 59 64 83 64 200 0 54 4 109 9 122 5 13 41 61 80 108 144 172
395 563 503 785 82 168 127 241 154 254 28 13 58 3 125 -40 25 -16 70 -33 99
-39 30 -6 62 -17 71 -26 28 -26 109 -287 109 -352 0 -18 -10 -61 -22 -96 l-22
-62 26 -55 c14 -29 33 -70 41 -90 10 -23 33 -48 64 -68 43 -30 54 -32 109 -29
151 9 355 180 395 329 11 41 10 53 -6 95 -20 52 -83 127 -125 149 -14 7 -51
18 -82 24 -106 19 -198 84 -239 167 -17 37 -20 55 -15 102 3 31 10 95 15 140
7 79 17 101 45 102 5 0 31 16 59 36 69 50 101 61 214 79 167 25 228 49 281
109 47 53 55 145 16 177 -23 19 -115 4 -258 -40 -146 -46 -141 -47 -221 29
-49 45 -71 56 -161 79 -23 6 -79 36 -124 66 -118 78 -135 77 -344 -21 -374
-176 -435 -257 -436 -575 0 -97 -2 -109 -25 -140 -14 -19 -31 -48 -39 -64 -44
-94 -467 -512 -631 -625 l-45 -31 -46 39 c-62 55 -223 108 -292 97 -151 -25
-218 -3 -322 106 -36 38 -71 69 -77 69 -17 0 -33 65 -33 140 -1 111 -16 187
-44 221 -30 35 -32 69 -12 144 19 73 43 114 70 121 31 8 153 -11 235 -36 75
-24 135 -25 253 -6 120 20 195 56 261 125 113 119 128 177 134 523 l5 267 60
12 c34 7 72 22 87 35 l26 22 -3 183 c-3 142 0 184 10 190 7 5 40 9 73 9 136 1
273 33 325 76 63 54 58 147 -14 248 -68 96 -164 142 -361 173 -147 23 -139 13
-132 153 6 126 24 190 53 190 10 0 36 -11 60 -25 46 -27 74 -24 74 6 0 25 -48
54 -132 80 l-67 21 5 81 c8 117 39 298 70 411 l27 98 71 -7 c39 -3 100 -13
135 -22 55 -13 74 -14 132 -3 38 7 90 10 120 6 165 -19 168 -19 194 -2 30 20
31 29 4 68 -28 39 -19 47 76 63 43 8 83 19 88 24 14 14 -75 102 -131 130 -45
23 -102 69 -102 82 0 5 11 9 25 9 30 0 41 20 25 49 -12 24 -143 92 -300 157
-127 51 -344 107 -509 130 -103 14 -151 26 -151 39 0 2 26 9 58 15 99 21 138
56 99 89 -19 15 -187 58 -282 71 -44 6 -91 13 -105 15 -38 5 -173 -13 -292
-41 -59 -13 -118 -24 -133 -24 -25 0 -25 0 -10 30 9 17 13 35 10 40 -8 13 -86
11 -165 -5z m70 -39 c0 -16 -52 -64 -111 -103 -44 -29 -72 -73 -63 -97 3 -9 7
-16 9 -16 2 0 67 31 146 70 197 96 300 122 479 123 127 0 216 -10 303 -35 88
-26 23 -50 -243 -88 -156 -22 -204 -40 -177 -67 12 -12 63 -17 258 -24 346
-13 470 -24 571 -54 115 -33 248 -85 355 -137 l88 -43 -47 -3 c-33 -2 -74 6
-135 27 -127 45 -200 39 -120 -9 17 -11 113 -57 212 -101 99 -45 196 -92 215
-104 42 -26 66 -53 56 -62 -23 -23 -370 29 -578 87 -77 21 -148 26 -148 10 0
-15 27 -26 155 -60 286 -77 375 -109 406 -146 13 -16 8 -17 -86 -11 -55 3
-153 17 -218 31 -126 28 -182 32 -192 16 -12 -19 -120 -9 -230 21 -266 72
-304 80 -367 86 -42 4 -68 2 -68 -4 0 -19 46 -51 99 -68 45 -15 51 -19 36 -28
-26 -14 -121 4 -295 58 -210 65 -385 130 -416 154 -15 12 -33 21 -40 21 -8 0
-35 28 -60 63 -72 98 -83 99 -113 17 -12 -33 -30 -65 -40 -72 -9 -7 -20 -18
-24 -25 -4 -6 15 -73 43 -147 27 -75 50 -152 50 -172 0 -34 -2 -36 -26 -30
-54 14 -59 -4 -73 -252 -5 -85 -12 -157 -16 -160 -4 -4 -24 12 -44 36 -20 23
-44 42 -53 42 -20 0 -58 -75 -58 -116 0 -16 -4 -36 -10 -44 -7 -12 -12 -12
-29 4 -28 25 -44 16 -70 -40 -17 -36 -25 -44 -31 -33 -15 26 -31 201 -37 404
-8 277 10 343 134 477 38 41 53 66 51 81 -5 38 -47 32 -165 -22 -61 -27 -123
-53 -139 -57 -28 -7 -29 -7 -13 17 17 25 98 82 191 134 37 21 59 41 72 68 41
86 237 262 351 317 56 26 213 78 243 79 6 1 12 -5 12 -13z m4337 -553 c-4 -3
-90 -32 -191 -65 -101 -32 -280 -96 -397 -143 -198 -79 -289 -108 -289 -90 0
4 13 24 30 45 49 61 231 146 409 191 47 12 89 26 92 31 3 5 73 14 155 19 82 5
154 11 159 14 17 6 39 5 32 -2z m-4474 -67 c146 -77 272 -125 456 -173 l136
-36 250 -4 c138 -2 260 -6 273 -9 31 -6 29 -31 -14 -199 -29 -112 -37 -165
-41 -265 -2 -69 -6 -130 -8 -136 -2 -8 -23 -8 -69 -2 -69 9 -106 0 -106 -27 0
-14 20 -20 110 -31 30 -3 63 -10 73 -16 30 -15 20 -46 -22 -67 -69 -36 -139
-179 -112 -230 17 -32 37 -26 87 25 l45 47 -3 -69 -3 -69 -30 2 c-36 3 -105
-14 -105 -26 0 -13 32 -19 160 -31 309 -29 436 -74 496 -175 31 -53 38 -122
15 -149 -27 -33 -92 -58 -165 -63 -111 -8 -220 17 -353 84 -75 38 -117 53
-130 49 -16 -7 -15 -10 14 -36 17 -15 62 -46 100 -68 40 -23 74 -51 81 -66 18
-40 34 -233 27 -318 l-7 -77 -46 -8 c-237 -41 -552 67 -693 237 -57 70 -58 81
-3 140 37 40 43 50 28 50 -76 0 -246 -213 -195 -245 11 -6 44 33 61 75 7 16
15 30 19 30 3 0 26 -31 50 -70 82 -133 166 -185 419 -259 l157 -46 12 -48 c6
-26 17 -99 23 -162 32 -306 -62 -536 -246 -604 -112 -43 -304 -36 -463 14 -80
26 -140 31 -170 15 -11 -6 -35 -56 -61 -127 -109 -299 -234 -577 -310 -689
-33 -47 -65 -70 -75 -54 -3 5 4 90 17 188 21 170 21 185 8 298 -9 71 -15 207
-15 336 l0 217 -28 28 c-26 28 -90 57 -232 108 -72 25 -374 231 -411 281 -38
50 -54 116 -61 249 -7 162 7 258 44 297 36 38 63 33 88 -15 42 -80 105 -58
200 70 84 112 133 211 147 295 10 56 9 83 -5 165 -31 174 -53 195 -227 214
-143 16 -165 26 -195 91 -48 102 -29 253 47 387 61 106 192 221 252 221 23 0
34 -34 47 -143 33 -276 38 -301 64 -324 13 -12 46 -25 72 -29 70 -10 90 6 125
99 35 91 66 121 97 93 27 -25 58 -20 75 12 18 35 23 62 41 206 8 65 16 121 19
123 2 3 16 -3 30 -12 14 -10 33 -14 42 -11 15 6 16 19 11 109 -4 57 -15 133
-27 172 -44 149 -51 179 -46 202 4 12 13 23 22 23 8 0 70 -29 137 -64z m4382
-76 c-5 -8 -68 -30 -88 -30 -19 0 7 20 36 29 43 12 59 13 52 1z m-295 -84
c-13 -16 -153 -66 -184 -66 -31 0 -14 9 85 45 107 39 116 41 99 21z m550 -135
c-8 -5 -26 -12 -40 -15 l-25 -7 25 15 c14 9 32 15 40 15 13 0 13 -1 0 -8z
m878 -114 c4 -19 -33 -41 -55 -33 -14 6 -12 10 7 31 26 27 43 28 48 2z m21
-108 c-9 -5 -15 -4 -18 2 -2 6 3 15 10 20 9 5 15 4 18 -2 2 -6 -3 -15 -10 -20z
m31 -73 c0 -15 -67 -62 -76 -53 -4 4 62 67 71 67 3 0 5 -6 5 -14z m-6293 -616
c18 -10 39 -30 48 -44 26 -39 47 -134 49 -211 1 -64 -3 -80 -54 -193 -56 -126
-104 -199 -153 -236 -36 -27 -43 -17 -50 81 -3 42 -11 81 -16 86 -8 8 -34 -11
-90 -67 -58 -58 -84 -77 -96 -72 -25 9 -16 74 24 163 17 39 31 80 31 92 0 31
-21 36 -41 10 -14 -18 -19 -20 -19 -8 0 22 112 207 183 301 92 121 121 137
184 98z m3121 -1396 c50 -35 102 -196 102 -319 0 -99 -29 -131 -88 -95 -24 15
-35 32 -48 77 -17 61 -57 133 -74 133 -15 0 -12 -41 5 -90 20 -56 19 -106 -1
-114 -28 -11 -77 -6 -151 15 -90 25 -158 23 -158 -5 0 -21 16 -28 108 -46 101
-20 153 -87 128 -163 -18 -52 -47 -62 -173 -59 l-108 3 0 -30 c0 -41 -51 -150
-155 -331 -185 -323 -438 -707 -534 -811 l-58 -64 -40 28 c-21 15 -54 42 -72
61 l-34 35 -59 -49 c-97 -81 -96 -81 -202 -11 -36 24 -38 27 -33 68 12 108
116 240 282 358 115 81 321 270 465 426 206 222 215 241 229 453 8 120 15 157
34 200 46 99 119 161 297 251 178 90 286 115 338 79z m242 -118 c72 -23 105
-159 60 -250 -22 -45 -81 -92 -104 -83 -8 3 -20 24 -26 46 -13 48 -30 264 -23
291 6 21 16 20 93 -4z m544 -52 c3 -9 -3 -31 -14 -50 -37 -59 -160 -105 -346
-129 l-51 -6 7 43 c3 24 10 49 14 56 7 11 131 53 256 86 77 20 126 20 134 0z
m1950 -210 c25 -10 19 -27 -21 -65 -53 -50 -91 -70 -233 -123 -164 -61 -205
-84 -205 -116 0 -19 10 -30 43 -47 111 -56 118 -79 47 -154 -28 -30 -43 -54
-39 -63 3 -9 36 -25 73 -36 85 -25 110 -42 95 -67 -5 -10 -48 -43 -95 -74 -95
-64 -109 -92 -48 -97 32 -3 38 -7 43 -33 4 -23 157 -302 230 -421 8 -14 4 -24
-23 -52 -37 -39 -38 -67 -1 -76 28 -6 36 -32 26 -85 -7 -34 -60 -95 -83 -95
-8 0 -33 20 -58 44 -31 32 -46 55 -50 83 -9 59 -83 289 -123 383 -61 145 -80
170 -169 216 -81 42 -80 41 -98 126 -8 42 -29 55 -97 63 -75 9 -123 27 -136
52 -5 10 -12 48 -15 86 -2 37 -11 76 -18 86 -8 10 -27 35 -43 56 -28 35 -29
38 -17 73 20 56 56 99 109 128 26 15 63 37 82 50 38 25 263 86 495 134 133 27
290 39 329 24z m-5571 -137 c27 -55 62 -236 53 -272 -7 -29 -219 -255 -260
-277 -18 -10 -19 -7 -12 93 4 57 11 156 15 219 5 72 14 127 24 146 21 42 126
136 146 132 9 -2 24 -20 34 -41z m5324 -162 c33 -23 131 -45 203 -45 36 0 153
11 260 25 174 22 196 23 207 9 6 -8 19 -57 28 -107 l18 -92 -32 -56 c-37 -65
-41 -132 -15 -251 8 -40 22 -116 30 -168 16 -109 38 -681 29 -752 -8 -59 -19
-60 -120 -20 l-70 28 -96 143 c-109 163 -167 234 -206 253 -21 10 -34 31 -53
83 -31 82 -85 189 -140 279 -21 35 -48 83 -60 106 l-22 43 40 41 c59 62 72 86
72 133 0 47 -14 65 -70 96 -26 14 -31 21 -25 40 4 12 9 46 12 75 5 45 2 57
-21 90 -14 21 -26 43 -26 50 0 17 31 15 57 -3z m1375 -169 c24 -62 26 -132 4
-154 -14 -14 -18 -14 -30 -2 -17 18 -56 123 -56 150 0 21 38 62 53 57 6 -2 18
-25 29 -51z m-6196 3 c16 -18 19 -37 19 -143 0 -77 -4 -128 -12 -141 -11 -17
-12 -13 -13 33 0 56 -13 92 -32 92 -6 0 -45 -35 -86 -77 -53 -56 -73 -71 -67
-53 10 36 157 310 165 310 4 0 15 -9 26 -21z m6082 -91 c6 -29 23 -69 37 -90
14 -21 25 -40 25 -42 0 -8 -114 -76 -126 -76 -11 0 -74 168 -74 195 0 15 81
65 105 65 16 0 23 -11 33 -52z m-170 -117 c17 -35 32 -79 32 -98 0 -28 -5 -36
-34 -50 -19 -9 -41 -13 -49 -10 -17 6 -47 109 -47 163 0 88 52 85 98 -5z
m-158 -33 c10 -24 25 -67 34 -96 14 -50 14 -54 -4 -72 -32 -32 -69 -26 -84 13
-21 49 -30 165 -16 182 23 28 50 17 70 -27z m-133 -78 c29 -99 29 -127 1 -136
-16 -5 -27 -1 -39 15 -32 40 -52 184 -26 194 31 13 43 0 64 -73z m-5007 -196
c0 -3 -27 -46 -60 -96 -93 -140 -83 -144 46 -17 101 98 103 99 153 45 26 -28
30 -18 -37 -106 -17 -24 -43 -79 -57 -123 -30 -94 -63 -338 -72 -528 l-6 -135
29 -27 c16 -15 33 -27 38 -27 15 0 -75 -90 -106 -106 -27 -14 -89 -19 -101 -8
-3 3 1 24 9 46 24 70 19 122 -18 164 -66 74 -170 96 -228 48 -17 -15 -40 -44
-51 -65 -11 -22 -22 -39 -26 -39 -14 0 8 150 32 220 14 41 30 107 36 145 26
165 199 517 292 590 24 18 44 25 80 25 26 0 47 -3 47 -6z m4468 -478 c45 -52
64 -126 32 -126 -21 0 -71 55 -81 90 -12 39 -7 70 10 70 5 0 22 -15 39 -34z
m-4395 -138 c9 -35 26 -105 38 -156 l23 -92 -20 -27 c-26 -35 -48 -48 -68 -40
-21 8 -21 54 0 171 12 69 13 100 5 132 -13 52 -14 74 -2 74 5 0 16 -28 24 -62z
m4374 -35 c51 -27 53 -27 81 -11 28 17 29 17 57 -12 40 -42 48 -131 15 -172
-12 -15 -36 -31 -53 -36 -25 -6 -35 -16 -44 -46 -28 -84 -44 -632 -22 -723 8
-30 24 -56 47 -77 109 -97 115 -104 108 -138 -8 -40 -32 -67 -75 -85 -19 -8
-42 -24 -51 -35 -15 -19 -27 -21 -116 -21 -54 1 -118 6 -142 12 -51 14 -105
59 -123 102 -20 49 -2 55 174 63 83 4 169 12 190 17 75 20 37 29 -123 29 -110
0 -160 3 -160 11 0 6 10 24 23 39 22 25 24 41 35 236 16 291 44 455 84 490 24
23 23 31 -7 38 -14 4 -25 13 -25 20 0 8 -16 33 -35 56 -33 40 -61 111 -67 174
-3 26 1 30 42 44 25 8 58 24 75 34 40 24 50 23 112 -9z m-2227 -75 c0 -33 -29
-58 -67 -58 -30 0 -33 3 -33 30 0 34 21 49 68 50 26 0 32 -4 32 -22z m741 -59
c29 -15 79 -98 79 -131 0 -46 -31 -68 -95 -68 -89 0 -135 33 -135 97 0 32 33
69 85 96 36 20 41 20 66 6z m1845 -74 c8 -31 -10 -55 -41 -55 -32 0 -49 23
-36 48 21 39 68 43 77 7z m-2575 -164 c11 -30 19 -80 19 -111 0 -65 -20 -99
-69 -120 -65 -27 -177 63 -175 141 2 45 35 105 106 191 l52 62 24 -55 c13 -29
33 -78 43 -108z m-2022 -37 c-6 -99 -14 -195 -18 -214 -10 -55 -53 -70 -208
-76 -146 -6 -176 2 -181 50 -5 37 26 69 86 91 110 41 173 95 213 182 25 56
106 160 116 149 2 -2 -1 -84 -8 -182z m4721 43 c0 -231 -25 -468 -57 -548 -19
-48 -68 -82 -98 -67 -27 14 -105 90 -105 102 0 5 12 23 28 39 l27 30 -27 -7
c-32 -7 -35 2 -13 43 8 16 12 31 9 33 -2 3 -27 1 -55 -4 -28 -5 -54 -7 -57 -4
-7 7 16 87 30 104 16 19 54 14 70 -10 13 -20 19 -21 44 -13 27 10 33 24 94
206 63 191 83 234 101 223 5 -3 9 -60 9 -127z m-1330 100 c31 18 32 18 50 -5
45 -55 33 -138 -24 -173 -46 -28 -81 -24 -123 15 -41 38 -41 35 4 144 13 31
14 32 38 16 22 -14 26 -14 55 3z m-4258 -45 c18 -16 58 -40 89 -55 35 -17 80
-52 122 -96 l67 -69 -6 -48 c-10 -72 -37 -156 -54 -165 -8 -5 -62 -26 -120
-49 -58 -22 -148 -64 -200 -94 -52 -29 -96 -53 -97 -52 -1 1 9 56 22 122 13
65 40 200 59 300 39 202 49 234 70 234 9 0 30 -13 48 -28z m5276 -23 c3 -51
-17 -151 -43 -213 -25 -59 -35 -30 -35 107 0 105 2 119 21 138 33 33 54 21 57
-32z m172 -24 c17 -21 4 -35 -35 -35 -41 0 -55 18 -30 37 24 17 50 17 65 -2z
m-1820 -114 c0 -103 61 -375 96 -429 8 -12 31 -30 50 -39 42 -20 53 -55 31
-92 -54 -92 -278 -107 -376 -25 -41 34 -40 67 3 115 40 43 59 100 110 319 36
152 59 215 76 205 6 -4 10 -28 10 -54z m1772 2 c29 -26 17 -108 -15 -98 -6 2
-24 6 -39 9 -34 8 -36 28 -8 74 22 36 35 39 62 15z m-1103 -131 c6 -37 15
-111 21 -164 12 -120 19 -138 75 -200 58 -64 61 -105 13 -141 -45 -33 -91 -47
-158 -47 -79 0 -124 30 -128 84 -5 53 3 79 34 115 42 51 65 126 74 247 8 109
31 191 49 180 5 -3 14 -36 20 -74z m-6533 26 l17 -33 15 23 c10 15 24 22 46
22 45 -1 192 -35 256 -60 38 -15 87 -23 160 -27 58 -3 111 -10 118 -16 25 -20
53 -88 50 -120 -4 -39 -55 -77 -103 -77 -37 0 -58 -19 -49 -44 7 -18 28 -24
93 -28 27 -2 47 -9 51 -18 12 -24 30 -157 24 -174 -3 -8 -27 -23 -52 -33 -41
-16 -81 -18 -316 -18 l-269 0 -54 60 c-98 109 -132 212 -95 290 l19 40 12 -40
c16 -52 36 -79 52 -70 12 8 10 59 -7 237 -6 60 -1 118 11 118 2 0 12 -15 21
-32z m5058 -175 c3 -21 11 -86 16 -145 12 -125 39 -223 60 -223 12 0 14 15 12
78 -3 60 -1 77 10 77 14 0 13 2 105 -149 35 -57 63 -109 63 -115 0 -6 -22 11
-48 37 -47 47 -65 54 -90 38 -10 -6 -6 -16 17 -40 33 -35 65 -119 56 -144 -9
-21 -20 -24 -122 -38 -108 -14 -248 -7 -290 14 -36 19 -45 45 -31 95 9 33 35
63 116 132 15 13 22 30 22 54 0 40 25 178 46 256 32 116 48 137 58 73z m-2266
-56 c4 -51 29 -60 167 -55 l110 3 0 -25 c0 -43 -34 -51 -191 -48 -161 3 -174
9 -174 70 0 62 26 101 65 96 15 -2 21 -12 23 -41z m247 28 c0 -11 -119 -19
-144 -10 -13 5 -14 7 -1 16 19 12 145 7 145 -6z m1449 4 c54 -15 98 -61 94
-96 -3 -27 -6 -28 -55 -28 -41 1 -58 6 -78 25 -35 33 -68 87 -60 100 8 13 50
13 99 -1z m1131 0 c65 -16 76 -35 28 -48 -51 -15 -88 -14 -153 4 -30 8 -100
15 -155 16 l-100 2 80 8 c44 5 100 13 125 18 64 13 124 13 175 0z m-715 -20
c8 -4 13 -9 10 -9 -3 -1 -59 -8 -125 -15 -66 -8 -130 -17 -143 -21 -21 -6 -23
-4 -20 22 2 23 9 30 33 36 38 9 225 -1 245 -13z m-940 0 c0 -5 -17 -17 -37
-26 -51 -22 -270 -31 -304 -12 l-24 13 25 7 c14 4 68 8 120 9 52 1 115 5 140
9 66 12 80 12 80 0z m2283 -4 c-2 -5 -29 -11 -60 -12 -57 -2 -58 -2 -28 12 33
16 91 16 88 0z m-2719 -1 c33 -13 11 -109 -33 -148 -28 -26 -39 -14 -57 61
-21 91 -21 93 30 93 24 0 51 -3 60 -6z m2546 -3 c0 -10 -61 -21 -74 -14 -13 8
16 23 47 23 15 0 27 -4 27 -9z m320 -6 c16 -20 3 -37 -23 -29 -24 7 -38 24
-31 36 8 13 41 9 54 -7z m-3925 -36 c0 -31 -3 -34 -33 -37 -46 -5 -55 24 -16
55 37 29 49 25 49 -18z m4330 20 c17 -5 48 -24 69 -43 l40 -33 -128 -7 c-70
-3 -131 -4 -137 -1 -5 4 -9 29 -9 56 l0 50 68 -7 c37 -3 81 -10 97 -15z m682
-65 c10 -14 42 -53 71 -85 28 -32 52 -63 52 -69 0 -16 -35 -29 -61 -23 -65 17
-109 80 -109 158 0 53 19 60 47 19z m-1984 -13 c12 -12 -24 -19 -146 -30 -98
-10 -144 -4 -175 21 -13 11 -11 14 19 20 45 9 291 0 302 -11z m-605 -17 c19
-5 23 -12 20 -38 l-3 -31 -65 3 c-163 7 -217 19 -192 44 10 10 54 16 197 26
11 1 30 -1 43 -4z m-2548 -34 c65 -12 68 -15 46 -39 -25 -27 -91 -41 -201 -41
-133 0 -164 19 -92 57 64 33 152 41 247 23z m3953 -4 c9 -24 -13 -33 -95 -40
-66 -6 -78 -4 -78 8 0 9 15 19 38 25 88 23 128 25 135 7z m-2499 -12 c35 -13
1 -24 -72 -23 l-77 1 50 13 c59 15 78 17 99 9z m807 -34 c27 -15 24 -29 -8
-41 -42 -16 -113 -3 -113 21 0 28 81 41 121 20z m3388 -27 c22 -14 23 -17 8
-28 -10 -7 -57 -27 -107 -44 -49 -18 -106 -44 -126 -58 -45 -30 -98 -40 -119
-23 -24 20 -20 95 7 114 81 57 275 79 337 39z m-5065 11 c9 -3 16 -17 16 -31
0 -27 -65 -143 -80 -143 -26 0 -40 34 -40 99 0 37 3 71 7 74 8 9 76 9 97 1z
m2644 -16 c18 -18 15 -46 -6 -57 -10 -6 -54 -14 -98 -20 -43 -5 -98 -13 -120
-17 -36 -5 -43 -3 -58 17 -20 29 -21 58 -2 65 59 23 265 31 284 12z m1472 -24
c0 -3 -18 -26 -40 -52 -26 -29 -42 -59 -47 -84 -3 -22 -13 -42 -21 -45 -22 -9
-78 25 -141 84 -50 48 -54 54 -40 69 9 8 38 19 65 23 58 10 224 14 224 5z
m-861 -54 c68 -57 89 -86 72 -103 -12 -12 -347 -29 -396 -20 -43 8 -89 33 -79
43 5 5 42 13 83 19 78 10 183 55 216 91 10 11 24 20 31 20 7 0 40 -23 73 -50z
m-1340 21 c38 -10 36 -27 -8 -51 -21 -13 -47 -38 -57 -56 -10 -19 -22 -34 -26
-34 -21 0 -62 98 -52 125 9 22 91 31 143 16z m-1049 -21 c11 -11 20 -24 20
-29 0 -27 -234 -21 -245 7 -12 32 14 42 111 42 81 0 97 -3 114 -20z m2510 -36
c12 -19 19 -38 15 -42 -7 -8 -42 35 -49 61 -7 29 11 19 34 -19z m-3960 -6 c0
-25 -12 -43 -59 -91 -33 -32 -65 -56 -70 -52 -19 11 -13 100 7 118 16 15 97
55 115 56 4 1 7 -13 7 -31z m5843 -4 c20 -10 37 -21 37 -25 0 -4 -33 -12 -72
-18 -96 -15 -165 -35 -224 -67 -110 -59 -132 -60 -149 -6 -18 60 29 102 145
129 73 17 215 10 263 -13z m-5223 -43 c0 -44 117 -92 265 -111 50 -6 108 -13
130 -16 49 -6 70 -18 60 -34 -8 -13 -88 -10 -245 10 -41 5 -127 9 -191 10
-160 0 -173 20 -83 119 39 44 64 52 64 22z m1709 -18 c23 -19 66 -159 52 -168
-5 -2 -70 0 -147 5 -76 5 -211 12 -299 15 -88 4 -168 9 -177 11 -20 6 -32 54
-24 97 l6 32 128 3 c70 1 154 6 187 11 33 5 103 9 156 10 79 1 101 -2 118 -16z
m1136 -84 c44 -81 43 -82 -168 -77 -100 2 -189 8 -198 12 -16 7 -34 64 -24 74
3 3 52 9 110 13 163 12 195 22 195 62 0 19 2 19 29 -7 16 -15 41 -50 56 -77z
m-2237 59 c-3 -7 -13 -15 -24 -17 -16 -3 -17 -1 -5 13 16 19 34 21 29 4z
m3255 -3 c18 -9 64 -45 102 -81 l70 -65 -255 3 c-249 3 -256 4 -285 26 -34 27
-99 101 -94 107 8 7 206 22 317 24 85 1 122 -3 145 -14z m-5329 -21 c3 -9 6
-29 6 -45 0 -42 -35 -53 -125 -42 -90 10 -91 26 -7 70 69 36 116 42 126 17z
m1109 -61 c75 -3 141 -9 147 -13 8 -5 4 -22 -12 -56 l-23 -49 -264 1 c-165 1
-267 6 -273 12 -7 7 5 26 37 61 l48 51 102 0 c56 0 163 -3 238 -7z m1185 -9
l253 -7 -3 -61 c-2 -34 -6 -60 -10 -58 -5 1 -137 2 -295 2 -159 0 -294 4 -302
9 -11 7 -11 16 -1 47 22 70 38 87 73 80 18 -3 146 -9 285 -12z m3979 -15 c32
-12 43 -26 43 -56 0 -12 16 -43 36 -68 l35 -47 -308 4 c-347 6 -383 12 -443
73 -18 19 -31 38 -27 41 3 4 57 -1 119 -11 l113 -18 70 31 c114 50 297 76 362
51z m-2377 -19 c17 -17 60 -91 60 -105 0 -7 -645 -6 -664 1 -10 4 -16 18 -16
35 0 35 18 37 95 13 131 -40 411 -4 464 60 18 21 37 20 61 -4z m1042 -32 c9
-7 28 -32 42 -55 l26 -43 -274 0 c-272 0 -341 4 -330 21 3 5 23 9 46 9 l41 0
-7 40 -6 40 223 0 c163 0 227 -3 239 -12z m-1691 -63 c0 -5 -9 -11 -21 -13
-20 -3 -27 8 -13 22 10 9 34 3 34 -9z"/>
<path d="M2680 6587 c0 -58 -3 -68 -40 -117 -48 -64 -53 -91 -12 -62 15 11 38
32 52 47 l25 27 5 -44 6 -43 13 58 c7 32 9 72 6 90 -11 48 -36 107 -46 107 -5
0 -9 -28 -9 -63z"/>
<path d="M3815 6486 c-160 -35 -214 -57 -215 -88 0 -16 67 -7 145 19 67 22 99
26 200 27 66 0 130 -3 143 -8 22 -8 23 -7 20 30 l-3 39 -90 2 c-63 1 -123 -5
-200 -21z"/>
<path d="M3957 6381 c-64 -42 -145 -179 -132 -221 10 -32 40 -23 98 30 80 73
119 164 85 198 -16 16 -18 15 -51 -7z"/>
<path d="M8300 6376 c-202 -70 -273 -114 -235 -146 12 -10 36 -5 122 25 188
64 305 127 289 153 -12 20 -45 14 -176 -32z"/>
<path d="M8200 6111 c-15 -28 -12 -186 3 -224 15 -36 75 -74 100 -64 39 15 47
170 12 237 -34 65 -93 91 -115 51z"/>
<path d="M7805 6040 c-24 -26 -32 -123 -16 -187 12 -47 54 -103 77 -103 41 0
54 186 17 256 -18 34 -39 54 -57 54 -2 0 -11 -9 -21 -20z"/>
<path d="M9807 5969 c-43 -25 -166 -248 -154 -282 1 -5 20 14 41 43 21 29 41
48 46 44 5 -5 14 -34 22 -64 9 -38 19 -56 31 -58 14 -3 17 4 17 41 0 24 -7 64
-15 87 -22 61 -19 76 20 127 48 63 44 92 -8 62z"/>
<path d="M8185 5118 c-36 -89 -65 -291 -43 -313 4 -4 130 23 280 60 150 37
298 70 328 72 l55 5 69 -61 c79 -70 102 -74 100 -18 -2 51 -46 111 -101 138
-64 31 -153 22 -396 -40 -109 -28 -214 -51 -233 -51 l-34 0 7 120 c4 90 3 120
-6 120 -7 0 -18 -15 -26 -32z"/>
<path d="M6666 3533 c3 -15 10 -44 15 -63 5 -19 9 -62 9 -96 0 -52 -5 -68 -36
-120 -67 -109 -86 -144 -76 -144 18 0 99 101 127 159 53 107 43 234 -21 276
-24 16 -25 16 -18 -12z"/>
<path d="M6887 3380 c-3 -8 -8 -35 -12 -59 -8 -62 -54 -143 -130 -231 -36 -41
-65 -79 -65 -83 0 -17 64 31 121 90 90 94 142 230 105 278 -12 16 -15 17 -19
5z"/>
<path d="M9426 2669 c-66 -44 -90 -53 -148 -58 -22 -2 -3 -34 33 -57 27 -17
46 -39 57 -65 26 -66 42 -50 42 40 l0 80 58 38 c54 36 71 62 46 70 -6 2 -46
-19 -88 -48z"/>
<path d="M9586 2662 c-64 -35 -76 -54 -56 -89 21 -36 40 -41 40 -9 0 15 8 30
20 36 24 13 40 5 40 -19 0 -20 27 -48 36 -38 10 9 -6 113 -19 131 -11 14 -17
13 -61 -12z"/>
<path d="M9450 2567 c0 -57 24 -83 40 -42 7 19 7 34 -2 53 -22 44 -38 39 -38
-11z"/>
<path d="M10656 1723 c-3 -10 -10 -70 -16 -133 -7 -63 -22 -173 -35 -245 -35
-195 -43 -256 -55 -420 -6 -82 -15 -177 -21 -210 -17 -106 -19 -100 27 -103
l42 -3 6 48 c3 26 8 100 11 163 8 164 34 394 51 464 17 68 31 363 20 419 -7
39 -21 48 -30 20z"/>
<path d="M10953 795 c0 -33 2 -45 4 -27 2 18 2 45 0 60 -2 15 -4 0 -4 -33z"/>
</g>
</svg>
